# Blender 5.1.2
# www.blender.org
o Cube.001
v -0.086456 0.001291 -0.367513
v -0.086456 0.500095 -0.367513
v 0.155227 0.001291 -0.803855
v 0.155227 0.500095 -0.803855
v 0.349886 0.001291 -0.125830
v 0.349886 0.500095 -0.125830
v 0.591569 0.001291 -0.562171
v 0.591569 0.500095 -0.562171
vn -0.8748 -0.0000 -0.4845
vn 0.4845 -0.0000 -0.8748
vn 0.8748 -0.0000 0.4845
vn -0.4845 -0.0000 0.8748
vn -0.0000 -1.0000 -0.0000
vn -0.0000 1.0000 -0.0000
vt 0.625000 0.000000
vt 0.375000 0.250000
vt 0.375000 0.000000
vt 0.625000 0.250000
vt 0.375000 0.500000
vt 0.625000 0.500000
vt 0.375000 0.750000
vt 0.625000 0.750000
vt 0.375000 1.000000
vt 0.125000 0.750000
vt 0.125000 0.500000
vt 0.875000 0.500000
vt 0.625000 1.000000
vt 0.875000 0.750000
s 0
f 2/1/1 3/2/1 1/3/1
f 4/4/2 7/5/2 3/2/2
f 8/6/3 5/7/3 7/5/3
f 6/8/4 1/9/4 5/7/4
f 7/5/5 1/10/5 3/11/5
f 4/12/6 6/8/6 8/6/6
f 2/1/1 4/4/1 3/2/1
f 4/4/2 8/6/2 7/5/2
f 8/6/3 6/8/3 5/7/3
f 6/8/4 2/13/4 1/9/4
f 7/5/5 5/7/5 1/10/5
f 4/12/6 2/14/6 6/8/6
o Cube.002
v 0.470482 0.006588 0.613447
v 0.470482 0.505392 0.613447
v -0.027470 0.006588 0.584310
v -0.027470 0.505392 0.584310
v 0.499619 0.006588 0.115495
v 0.499619 0.505392 0.115495
v 0.001667 0.006588 0.086358
v 0.001667 0.505392 0.086358
vn -0.0584 -0.0000 0.9983
vn -0.9983 -0.0000 -0.0584
vn 0.0584 -0.0000 -0.9983
vn 0.9983 -0.0000 0.0584
vn -0.0000 -1.0000 -0.0000
vn -0.0000 1.0000 -0.0000
vt 0.625000 0.000000
vt 0.375000 0.250000
vt 0.375000 0.000000
vt 0.625000 0.250000
vt 0.375000 0.500000
vt 0.625000 0.500000
vt 0.375000 0.750000
vt 0.625000 0.750000
vt 0.375000 1.000000
vt 0.125000 0.750000
vt 0.125000 0.500000
vt 0.875000 0.500000
vt 0.625000 1.000000
vt 0.875000 0.750000
s 0
f 10/15/7 11/16/7 9/17/7
f 12/18/8 15/19/8 11/16/8
f 16/20/9 13/21/9 15/19/9
f 14/22/10 9/23/10 13/21/10
f 15/19/11 9/24/11 11/25/11
f 12/26/12 14/22/12 16/20/12
f 10/15/7 12/18/7 11/16/7
f 12/18/8 16/20/8 15/19/8
f 16/20/9 14/22/9 13/21/9
f 14/22/10 10/27/10 9/23/10
f 15/19/11 13/21/11 9/24/11
f 12/26/12 10/28/12 14/22/12
o Cube.003
v 0.544774 0.502424 -0.223466
v 0.544774 1.001228 -0.223466
v 0.406683 0.502424 0.255842
v 0.406683 1.001228 0.255842
v 0.065466 0.502424 -0.361556
v 0.065466 1.001228 -0.361556
v -0.072625 0.502424 0.117752
v -0.072625 1.001228 0.117752
vn 0.9609 -0.0000 0.2768
vn -0.2768 -0.0000 0.9609
vn -0.9609 -0.0000 -0.2768
vn 0.2768 -0.0000 -0.9609
vn -0.0000 -1.0000 -0.0000
vn -0.0000 1.0000 -0.0000
vt 0.625000 0.000000
vt 0.375000 0.250000
vt 0.375000 0.000000
vt 0.625000 0.250000
vt 0.375000 0.500000
vt 0.625000 0.500000
vt 0.375000 0.750000
vt 0.625000 0.750000
vt 0.375000 1.000000
vt 0.125000 0.750000
vt 0.125000 0.500000
vt 0.875000 0.500000
vt 0.625000 1.000000
vt 0.875000 0.750000
s 0
f 18/29/13 19/30/13 17/31/13
f 20/32/14 23/33/14 19/30/14
f 24/34/15 21/35/15 23/33/15
f 22/36/16 17/37/16 21/35/16
f 23/33/17 17/38/17 19/39/17
f 20/40/18 22/36/18 24/34/18
f 18/29/13 20/32/13 19/30/13
f 20/32/14 24/34/14 23/33/14
f 24/34/15 22/36/15 21/35/15
f 22/36/16 18/41/16 17/37/16
f 23/33/17 21/35/17 17/38/17
f 20/40/18 18/42/18 22/36/18
o Cube.004
v -0.993445 0.001836 1.001226
v -0.993445 2.001836 1.001226
v -0.993445 0.001836 -0.998774
v -0.993445 2.001836 -0.998774
v 1.006555 0.001836 1.001226
v 0.715398 2.118752 0.710069
v 1.006555 0.001836 -0.998774
v 0.715398 2.118752 -0.707617
v -0.702288 2.118752 -0.707617
v -0.702288 2.118752 0.710069
v 1.006555 2.001836 -0.998774
v 1.006555 2.001836 1.001226
v -0.702288 2.001836 0.710069
v -0.702288 2.001836 -0.707617
v 0.715398 2.001836 -0.707617
v 0.715398 2.001836 0.710069
vn -0.0000 -0.0000 -1.0000
vn 1.0000 -0.0000 -0.0000
vn -0.0000 -0.0000 1.0000
vn -0.0000 -1.0000 -0.0000
vn -0.0000 1.0000 -0.0000
vn -1.0000 -0.0000 -0.0000
vt 0.625000 0.250000
vt 0.375000 0.500000
vt 0.375000 0.250000
vt 0.625000 0.500000
vt 0.375000 0.750000
vt 0.625000 0.750000
vt 0.375000 1.000000
vt 0.125000 0.750000
vt 0.125000 0.500000
vt 0.838605 0.536395
vt 0.875000 0.750000
vt 0.838605 0.713605
vt 0.661395 0.536395
vt 0.875000 0.500000
vt 0.661395 0.713605
vt 0.625000 1.000000
s 0
f 28/43/19 31/44/19 27/45/19
f 35/46/20 29/47/20 31/44/20
f 36/48/21 25/49/21 29/47/21
f 31/44/22 25/50/22 27/51/22
f 38/52/23 26/53/23 37/54/23
f 39/55/23 28/56/23 38/52/23
f 40/57/23 35/46/23 39/55/23
f 37/54/23 36/48/23 40/57/23
f 33/52/24 37/54/24 34/54/24
f 32/55/19 38/52/19 33/52/19
f 30/57/20 39/55/20 32/55/20
f 34/54/21 40/57/21 30/57/21
f 28/43/19 35/46/19 31/44/19
f 35/46/20 36/48/20 29/47/20
f 36/48/21 26/58/21 25/49/21
f 31/44/22 29/47/22 25/50/22
f 38/52/23 28/56/23 26/53/23
f 39/55/23 35/46/23 28/56/23
f 40/57/23 36/48/23 35/46/23
f 37/54/23 26/53/23 36/48/23
f 33/52/24 38/52/24 37/54/24
f 32/55/19 39/55/19 38/52/19
f 30/57/20 40/57/20 39/55/20
f 34/54/21 37/54/21 40/57/21
